<svg width="124" height="36" viewBox="0 0 124 36" fill="none" xmlns="http://www.w3.org/2000/svg">
<path d="M24.35 4.4C24.35 4.56666 24.2833 4.71666 24.15 4.85C24.05 4.95 23.9167 5 23.75 5H6.7C6.53333 5 6.45 5.08333 6.45 5.25V14.6C6.45 14.7667 6.53333 14.85 6.7 14.85H18.15C18.3167 14.85 18.45 14.9167 18.55 15.05C18.6833 15.15 18.75 15.2833 18.75 15.45V19.25C18.75 19.4167 18.6833 19.5667 18.55 19.7C18.45 19.8 18.3167 19.85 18.15 19.85H6.7C6.53333 19.85 6.45 19.9333 6.45 20.1V29.75C6.45 29.9167 6.53333 30 6.7 30H23.75C23.9167 30 24.05 30.0667 24.15 30.2C24.2833 30.3 24.35 30.4333 24.35 30.6V34.4C24.35 34.5667 24.2833 34.7167 24.15 34.85C24.05 34.95 23.9167 35 23.75 35H1.25C1.08333 35 0.933334 34.95 0.8 34.85C0.7 34.7167 0.65 34.5667 0.65 34.4V0.599999C0.65 0.433332 0.7 0.299999 0.8 0.199998C0.933334 0.0666644 1.08333 -2.38419e-06 1.25 -2.38419e-06H23.75C23.9167 -2.38419e-06 24.05 0.0666644 24.15 0.199998C24.2833 0.299999 24.35 0.433332 24.35 0.599999V4.4Z" fill="#4CA4AA"/>
<path d="M38.3018 35.24C36.5738 35.24 35.0378 34.968 33.6938 34.424C32.3818 33.848 31.3578 33.08 30.6218 32.12C29.8858 31.16 29.5178 30.104 29.5178 28.952V28.328C29.5178 28.008 29.6778 27.848 29.9978 27.848H31.4858C31.8058 27.848 31.9658 28.008 31.9658 28.328V28.856C31.9658 30.04 32.5578 31.064 33.7418 31.928C34.9258 32.76 36.4298 33.176 38.2538 33.176C40.0458 33.176 41.5018 32.744 42.6218 31.88C43.7418 31.016 44.3018 29.944 44.3018 28.664C44.3018 27.768 44.0138 27.032 43.4378 26.456C42.8618 25.88 42.1738 25.448 41.3738 25.16C40.6058 24.84 39.4378 24.44 37.8698 23.96C36.0778 23.416 34.6378 22.904 33.5498 22.424C32.4618 21.944 31.5338 21.272 30.7658 20.408C30.0298 19.512 29.6618 18.392 29.6618 17.048C29.6618 15.096 30.4298 13.544 31.9658 12.392C33.5338 11.208 35.5818 10.616 38.1098 10.616C39.8058 10.616 41.2938 10.904 42.5738 11.48C43.8858 12.024 44.8938 12.776 45.5978 13.736C46.3338 14.696 46.7018 15.784 46.7018 17V17.144C46.7018 17.464 46.5418 17.624 46.2218 17.624H44.7338C44.4138 17.624 44.2538 17.464 44.2538 17.144V17C44.2538 15.784 43.6778 14.776 42.5258 13.976C41.4058 13.144 39.9178 12.728 38.0618 12.728C36.2698 12.728 34.8298 13.112 33.7418 13.88C32.6538 14.616 32.1098 15.624 32.1098 16.904C32.1098 18.12 32.6058 19.032 33.5978 19.64C34.6218 20.248 36.2058 20.872 38.3498 21.512C40.2058 22.056 41.6778 22.568 42.7658 23.048C43.8858 23.528 44.8458 24.216 45.6458 25.112C46.4458 25.976 46.8458 27.112 46.8458 28.52C46.8458 30.536 46.0618 32.168 44.4938 33.416C42.9578 34.632 40.8938 35.24 38.3018 35.24ZM63.7208 12.488C63.7208 12.808 63.5608 12.968 63.2408 12.968H57.6248C57.4968 12.968 57.4328 13.032 57.4328 13.16V28.328C57.4328 29.96 57.8008 31.112 58.5368 31.784C59.2728 32.424 60.4568 32.744 62.0888 32.744H63.1928C63.5128 32.744 63.6728 32.904 63.6728 33.224V34.52C63.6728 34.84 63.5128 35 63.1928 35L61.7528 35.048C59.5128 35.048 57.8168 34.616 56.6648 33.752C55.5448 32.888 54.9688 31.304 54.9368 29V13.16C54.9368 13.032 54.8728 12.968 54.7448 12.968H51.8648C51.5448 12.968 51.3848 12.808 51.3848 12.488V11.288C51.3848 10.968 51.5448 10.808 51.8648 10.808H54.7448C54.8728 10.808 54.9368 10.744 54.9368 10.616V5.144C54.9368 4.824 55.0968 4.664 55.4168 4.664H56.9528C57.2728 4.664 57.4328 4.824 57.4328 5.144V10.616C57.4328 10.744 57.4968 10.808 57.6248 10.808H63.2408C63.5608 10.808 63.7208 10.968 63.7208 11.288V12.488ZM78.9068 10.424C81.7228 10.424 83.8668 11.16 85.3388 12.632C86.8108 14.072 87.5468 16.024 87.5468 18.488V34.52C87.5468 34.84 87.3868 35 87.0668 35H85.4828C85.1628 35 85.0028 34.84 85.0028 34.52V32.264C85.0028 32.2 84.9708 32.152 84.9068 32.12C84.8748 32.088 84.8268 32.104 84.7628 32.168C83.9308 33.224 82.8428 34.024 81.4988 34.568C80.1868 35.112 78.7148 35.384 77.0828 35.384C74.8748 35.384 73.0028 34.824 71.4668 33.704C69.9308 32.584 69.1628 30.872 69.1628 28.568C69.1628 26.2 70.0428 24.328 71.8028 22.952C73.5628 21.576 75.9788 20.888 79.0508 20.888H84.8108C84.9388 20.888 85.0028 20.824 85.0028 20.696V18.536C85.0028 16.744 84.4908 15.32 83.4668 14.264C82.4748 13.208 80.9388 12.68 78.8588 12.68C77.2268 12.68 75.8828 13.016 74.8268 13.688C73.7708 14.36 73.1148 15.256 72.8588 16.376C72.7628 16.696 72.5708 16.84 72.2828 16.808L70.6028 16.568C70.2508 16.504 70.1068 16.376 70.1708 16.184C70.4588 14.456 71.3868 13.064 72.9548 12.008C74.5548 10.952 76.5388 10.424 78.9068 10.424ZM77.5148 33.176C79.5308 33.176 81.2748 32.68 82.7468 31.688C84.2508 30.696 85.0028 29.32 85.0028 27.56V23.192C85.0028 23.064 84.9388 23 84.8108 23H79.2908C77.0188 23 75.1788 23.48 73.7708 24.44C72.3948 25.4 71.7068 26.728 71.7068 28.424C71.7068 29.992 72.2508 31.176 73.3388 31.976C74.4268 32.776 75.8188 33.176 77.5148 33.176ZM104.292 10.616C105.38 10.616 106.308 10.808 107.076 11.192C107.332 11.288 107.428 11.496 107.364 11.816L106.932 13.352C106.836 13.672 106.628 13.768 106.308 13.64C105.668 13.384 104.868 13.272 103.908 13.304C102.116 13.336 100.628 14.024 99.4441 15.368C98.2921 16.68 97.7161 18.296 97.7161 20.216V34.52C97.7161 34.84 97.5561 35 97.2361 35H95.6521C95.3321 35 95.1721 34.84 95.1721 34.52V11.288C95.1721 10.968 95.3321 10.808 95.6521 10.808H97.2361C97.5561 10.808 97.7161 10.968 97.7161 11.288V14.552C97.7161 14.648 97.7321 14.712 97.7641 14.744C97.8281 14.744 97.8761 14.696 97.9081 14.6C98.5801 13.352 99.4441 12.376 100.5 11.672C101.588 10.968 102.852 10.616 104.292 10.616ZM123.252 12.488C123.252 12.808 123.092 12.968 122.772 12.968H117.156C117.028 12.968 116.964 13.032 116.964 13.16V28.328C116.964 29.96 117.332 31.112 118.068 31.784C118.804 32.424 119.988 32.744 121.62 32.744H122.724C123.044 32.744 123.204 32.904 123.204 33.224V34.52C123.204 34.84 123.044 35 122.724 35L121.284 35.048C119.044 35.048 117.348 34.616 116.196 33.752C115.076 32.888 114.5 31.304 114.468 29V13.16C114.468 13.032 114.404 12.968 114.276 12.968H111.396C111.076 12.968 110.916 12.808 110.916 12.488V11.288C110.916 10.968 111.076 10.808 111.396 10.808H114.276C114.404 10.808 114.468 10.744 114.468 10.616V5.144C114.468 4.824 114.628 4.664 114.948 4.664H116.484C116.804 4.664 116.964 4.824 116.964 5.144V10.616C116.964 10.744 117.028 10.808 117.156 10.808H122.772C123.092 10.808 123.252 10.968 123.252 11.288V12.488Z" fill="black"/>
</svg>
